#N canvas 713 435 1160 623 12;
#X obj 21 455 outlet~;
#X obj 23 370 tabread~ analog\$1;
#X obj 23 345 *~;
#X obj 740 65 r bufferSizeInSamples;
#X obj 793 205 \$1;
#X obj 793 183 loadbang;
#X obj 740 230 pack f f;
#X msg 740 254 \; analog\$2 resize \$1;
#X obj 41 290 r bufferSizeInSamples, f 19;
#X msg 79 198 0;
#X obj 78 64 r resync;
#X obj 79 134 del;
#X obj 97 106 r delay;
#N canvas 208 208 1840 830 (subpatch) 0;
#X array analog\$1 22048 float 2;
#X coords 0 1 22048 0 400 300 1 0 0;
#X restore 252 280 graph;
#X text 154 107 keep off the heels of the write head;
#X text 112 200 phase;
#X obj 19 224 phasor~ 1;
#X obj 678 421 r analogChannels;
#X obj 723 480 \$1;
#X obj 732 445 loadbang;
#X obj 794 444 bng 19 250 50 0 empty empty empty 0 -10 0 12 #fcfcfc #000000 #000000;
#X obj 681 562 switch~;
#X obj 716 537 tgl 19 0 empty empty empty 0 -10 0 12 #fcfcfc #000000 #000000 0 1;
#X obj 681 538 >;
#X obj 740 91 t f b;
#X obj 772 113 \$1;
#X msg 772 137 \; analog\$1 const 0;
#N canvas 1015 514 488 431 blink 1;
#X obj 44 132 inlet~;
#X obj 45 260 outlet~;
#X obj 125 -6 r blink;
#X obj 45 205 *~;
#X obj 71 174 vline~;
#X msg 182 153 1 1000;
#X obj 182 129 loadbang;
#X obj 182 61 r off;
#X msg 182 91 0 50;
#X msg 125 27 0 50 \, 1 50 950;
#X listbox 159 204 20 0 0 0 - - - 0;
#X text 236 154 start open;
#X text 238 26 close for state change;
#X text 229 89 close when Bela analog data stops;
#X connect 0 0 3 0;
#X connect 2 0 9 0;
#X connect 3 0 1 0;
#X connect 4 0 3 1;
#X connect 5 0 4 0;
#X connect 5 0 10 0;
#X connect 6 0 5 0;
#X connect 7 0 8 0;
#X connect 8 0 4 0;
#X connect 8 0 10 0;
#X connect 9 0 4 0;
#X connect 9 0 10 0;
#X restore 21 411 pd blink;
#X obj 901 65 r off;
#X obj 901 90 del 50;
#X obj 79 158 t b b;
#X msg 43 198 1;
#X obj 19 19 r blink;
#X msg 19 44 0;
#X text 56 43 stop readhead during state change;
#X text 744 536 turn on and off depending on the num of channels in use, f 16;
#X text 907 118 clear buffer if incoming analog data stops, f 16;
#X text 737 21 buffer size is always ~ 1000ms regardless of sample rate, f 30;
#X connect 1 0 27 0;
#X connect 2 0 1 0;
#X connect 3 0 24 0;
#X connect 4 0 6 1;
#X connect 5 0 4 0;
#X connect 6 0 7 0;
#X connect 8 0 2 1;
#X connect 9 0 16 1;
#X connect 10 0 11 0;
#X connect 11 0 30 0;
#X connect 12 0 11 1;
#X connect 16 0 2 0;
#X connect 17 0 23 0;
#X connect 18 0 23 1;
#X connect 19 0 18 0;
#X connect 20 0 18 0;
#X connect 23 0 21 0;
#X connect 23 0 22 0;
#X connect 24 0 6 0;
#X connect 24 1 25 0;
#X connect 25 0 26 0;
#X connect 27 0 0 0;
#X connect 28 0 29 0;
#X connect 29 0 25 0;
#X connect 30 0 31 0;
#X connect 30 1 9 0;
#X connect 31 0 16 0;
#X connect 32 0 33 0;
#X connect 33 0 16 0;
