#N canvas 994 325 615 441 12;
#X obj 88 60 inlet;
#X obj 85 293 outlet;
#X obj 85 87 bufWrite \$1 0;
#X obj 85 112 bufWrite \$1 1;
#X obj 85 137 bufWrite \$1 2;
#X obj 85 162 bufWrite \$1 3;
#X obj 85 187 bufWrite \$1 4;
#X obj 85 212 bufWrite \$1 5;
#X obj 85 237 bufWrite \$1 6;
#X obj 85 262 bufWrite \$1 7;
#X text 53 340 \$1 = which block of 8 sample writers we're in;
#X text 65 383 can add more of these objects if > 64 sample block size needed, f 25;
#X text 85 16 bufWrite 8 = holds 8 writeheads;
#X connect 0 0 2 0;
#X connect 2 0 3 0;
#X connect 3 0 4 0;
#X connect 4 0 5 0;
#X connect 5 0 6 0;
#X connect 6 0 7 0;
#X connect 7 0 8 0;
#X connect 8 0 9 0;
#X connect 9 0 1 0;
