#N canvas 104 308 824 589 12;
#X obj 69 10 inlet;
#X obj 107 218 outlet;
#X obj 395 109 loadbang;
#X obj 394 164 \$1;
#X obj 461 109 bng 19 250 50 0 empty empty empty 0 -10 0 12 #fcfcfc #000000 #000000;
#X obj 395 133 t b b;
#X obj 428 165 \$2;
#X obj 393 240 +;
#X obj 394 188 * 8;
#X obj 262 375 f;
#X obj 353 301 r rewrite;
#X obj 321 327 f;
#X obj 361 323 r analogBlockSize;
#X obj 302 376 +;
#X obj 63 282 splitWrite \$0 0;
#X obj 262 408 s \$0-writeHead;
#X obj 69 52 t l b, f 28;
#X obj 63 307 splitWrite \$0 1;
#X obj 63 332 splitWrite \$0 2;
#X obj 63 357 splitWrite \$0 3;
#X obj 63 382 splitWrite \$0 4;
#X obj 63 407 splitWrite \$0 5;
#X obj 63 432 splitWrite \$0 6;
#X obj 63 457 splitWrite \$0 7;
#X floatatom 406 267 5 0 0 0 - - - 0;
#X text 466 158 \$2 = which # sample writer of the 8 we're in, f 15;
#X text 426 239 the number of this samplewriter (0-analogBlockSize);
#X text 427 302 wrap to beginning of circular buffer;
#X text 342 376 advance by analogBlockSize;
#X text 379 409 # sample to write to;
#X obj 130 89 r analogChannels;
#X obj 130 113 * 2;
#X obj 63 181 list split;
#X text 165 163 take x channel values and send the remainder to the next sample writer, f 12;
#X floatatom 150 138 5 0 0 0 - - - 0;
#X obj 361 349 t b f;
#X text 200 3 comment;
#X connect 0 0 16 0;
#X connect 2 0 5 0;
#X connect 3 0 8 0;
#X connect 4 0 5 0;
#X connect 5 0 3 0;
#X connect 5 1 6 0;
#X connect 6 0 7 1;
#X connect 7 0 11 0;
#X connect 7 0 24 0;
#X connect 8 0 7 0;
#X connect 9 0 13 0;
#X connect 9 0 15 0;
#X connect 10 0 11 0;
#X connect 11 0 9 1;
#X connect 12 0 35 0;
#X connect 13 0 9 1;
#X connect 14 0 17 0;
#X connect 16 0 32 0;
#X connect 16 1 9 0;
#X connect 17 0 18 0;
#X connect 18 0 19 0;
#X connect 19 0 20 0;
#X connect 20 0 21 0;
#X connect 21 0 22 0;
#X connect 22 0 23 0;
#X connect 30 0 31 0;
#X connect 31 0 32 1;
#X connect 31 0 34 0;
#X connect 32 0 14 0;
#X connect 32 1 1 0;
#X connect 35 0 11 0;
#X connect 35 1 13 1;
