#N canvas 368 589 450 300 12;
#X obj 204 152 r \$1-writeHead;
#X obj 89 41 inlet;
#X obj 89 114 list split 2;
#X obj 129 140 outlet;
#X obj 88 214 tabwrite analog\$2;
#X obj 88 183 unpak;
#X floatatom 28 225 5 0 0 0 - - - 0;
#X text 99 66 take my value and pass the rest on, f 13;
#X connect 0 0 4 1;
#X connect 1 0 2 0;
#X connect 2 0 5 0;
#X connect 2 1 3 0;
#X connect 5 0 4 0;
#X connect 5 0 6 0;
