#N canvas 335 60 446 341 12;
#X msg 101 121 close;
#X msg 151 141 devices;
#N canvas 408 25 953 847 serialinterface 0;
#X obj 407 69 inlet;
#X obj 437 305 list store;
#X obj 437 343 list tosymbol;
#X msg 558 192 append \$1;
#X text 279 373 convert from sym to #;
#X obj 396 182 t b b b;
#X obj 465 182 t b b b;
#X text 491 127 42 ('*') is the delineator for adc #;
#X text 494 148 44 (' \, ') is the delineator for voltage;
#X obj 438 371 f;
#X obj 415 465 f;
#X obj 584 462 i;
#X obj 483 566 pack f f;
#X obj 409 138 sel 44 42;
#X obj 481 632 route 0 1 2 3 4 5 6 7;
#X obj 342 705 outlet;
#X obj 404 708 outlet;
#X obj 462 709 outlet;
#X obj 524 712 outlet;
#X obj 586 712 outlet;
#X obj 648 715 outlet;
#X obj 706 716 outlet;
#X obj 768 719 outlet;
#X obj 407 100 comport 1 115200;
#X text 382 458 CV;
#X text 335 478 value 0-1;
#X text 614 471 value 0-7;
#X text 616 451 adc #;
#X text 537 343 convert from ASCII (the value is still a symbol);
#X text 519 304 compiles list;
#X text 628 191 appends values that are not delineators;
#X connect 0 0 23 0;
#X connect 1 0 2 0;
#X connect 2 0 9 0;
#X connect 3 0 1 0;
#X connect 5 0 1 1;
#X connect 5 1 10 0;
#X connect 5 2 1 0;
#X connect 6 0 1 1;
#X connect 6 1 11 0;
#X connect 6 2 1 0;
#X connect 9 0 10 1;
#X connect 9 0 11 1;
#X connect 10 0 12 1;
#X connect 11 0 12 0;
#X connect 12 0 14 0;
#X connect 13 0 5 0;
#X connect 13 1 6 0;
#X connect 13 2 3 0;
#X connect 14 0 15 0;
#X connect 14 1 16 0;
#X connect 14 2 17 0;
#X connect 14 3 18 0;
#X connect 14 4 19 0;
#X connect 14 5 20 0;
#X connect 14 6 21 0;
#X connect 14 7 22 0;
#X connect 23 0 13 0;
#X restore 87 163 pd serialinterface;
#X msg 101 139 open 1;
#X msg 151 122 open 2;
#X floatatom 56 215 5 0 0 0 - - - 0;
#X floatatom 95 216 5 0 0 0 - - - 0;
#X floatatom 135 216 5 0 0 0 - - - 0;
#X floatatom 174 217 5 0 0 0 - - - 0;
#X floatatom 224 219 5 0 0 0 - - - 0;
#X floatatom 263 220 5 0 0 0 - - - 0;
#X floatatom 303 220 5 0 0 0 - - - 0;
#X floatatom 342 221 5 0 0 0 - - - 0;
#X connect 0 0 2 0;
#X connect 1 0 2 0;
#X connect 2 0 5 0;
#X connect 2 1 6 0;
#X connect 2 2 7 0;
#X connect 2 3 8 0;
#X connect 2 4 9 0;
#X connect 2 5 10 0;
#X connect 2 6 11 0;
#X connect 2 7 12 0;
#X connect 3 0 2 0;
#X connect 4 0 2 0;
