#N canvas 335 60 1105 700 12;
#X msg 101 121 close;
#X msg 151 141 devices;
#N canvas 640 25 780 847 serialinterface 1;
#X obj 336 48 inlet;
#N canvas 191 149 449 546 signalreader 0;
#X obj 3 123 inlet~;
#X obj 130 138 tgl 15 0 empty empty empty 17 7 0 10 #fcfcfc #000000
#000000 0 1;
#X obj 28 270 snapshot~;
#X floatatom 12 307 5 0 0 0 - - - 0;
#X obj 47 400 moses;
#X floatatom 94 433 5 0 0 0 - - - 0;
#X obj 41 463 moses;
#X floatatom 44 502 5 0 0 0 - - - 0;
#X obj 302 110 loadbang;
#X msg 302 134 100;
#X floatatom 212 107 5 0 0 0 - - - 0;
#X obj 28 235 metro;
#X text 147 107 Rate (ms);
#X text 101 136 1/0;
#X floatatom 123 161 6 0 0 0 - - - 0;
#X floatatom 196 162 6 0 0 0 - - - 0;
#X obj 145 183 bng 15 250 50 0 empty empty empty 17 7 0 10 #fcfcfc
#000000 #000000;
#X text 103 181 Reset;
#X floatatom 210 127 5 0 0 0 - - - 0;
#X msg 104 369 -100000;
#X msg 179 371 100000;
#X text 102 162 Lo;
#X text 172 161 Hi;
#X obj 152 72 env~;
#X floatatom 102 117 5 0 0 0 - - - 0;
#X obj 252 254 switch~;
#X text 102 100 Env~;
#X text 147 126 Snapshot~;
#X obj 286 200 -;
#X floatatom 216 182 5 0 0 0 - - - 0;
#X text 177 181 Range;
#X connect 0 0 2 0;
#X connect 0 0 23 0;
#X connect 1 0 11 0;
#X connect 1 0 25 0;
#X connect 2 0 3 0;
#X connect 2 0 4 0;
#X connect 2 0 18 0;
#X connect 3 0 6 0;
#X connect 4 1 5 0;
#X connect 5 0 4 1;
#X connect 5 0 15 0;
#X connect 6 0 7 0;
#X connect 7 0 6 1;
#X connect 7 0 14 0;
#X connect 8 0 9 0;
#X connect 9 0 10 0;
#X connect 10 0 11 1;
#X connect 11 0 2 0;
#X connect 14 0 28 1;
#X connect 15 0 28 0;
#X connect 16 0 19 0;
#X connect 16 0 20 0;
#X connect 19 0 4 1;
#X connect 20 0 6 1;
#X connect 23 0 24 0;
#X connect 28 0 29 0;
#X coords 0 -1 1 1 150 100 2 100 100;
#X restore 130 275 pd signalreader;
#X obj 437 305 list store;
#X floatatom 619 454 5 0 0 0 - - - 0;
#X obj 437 343 list tosymbol;
#X msg 558 192 append \$1;
#X text 628 191 appends #s not 44;
#X text 520 304 stores list;
#X text 539 343 convert from ASCII to (symbol #);
#X text 582 379 convert from sym to #;
#X obj 396 182 t b b b;
#X obj 465 182 t b b b;
#X text 342 472 voltage;
#X text 672 449 adc#;
#X text 555 137 42 ('*') is the delineator for adc #;
#X text 558 158 44 (' \, ') is the delineator for voltage;
#X obj 438 371 f;
#X obj 415 465 f;
#X obj 620 429 i;
#X obj 483 566 pack f f;
#X obj 409 138 sel 44 42;
#X obj 481 632 route 0 1 2 3 4 5 6 7;
#X obj 342 705 outlet;
#X obj 404 708 outlet;
#X obj 462 709 outlet;
#X obj 524 712 outlet;
#X floatatom 408 548 5 0 0 0 - - - 0;
#X obj 798 561 metro 1000;
#X obj 782 531 tgl 15 0 empty empty empty 17 7 0 10 #fcfcfc #000000
#000000 0 1;
#X obj 888 568 bng 15 250 50 0 empty empty empty 17 7 0 10 #fcfcfc
#000000 #000000;
#X obj 884 653 f;
#X obj 900 685 + 1;
#X obj 867 686 f;
#X floatatom 867 749 5 0 0 0 - - - 0;
#X obj 886 535 sel 0;
#X obj 797 597 t b b;
#X msg 795 625 0;
#X obj 586 712 outlet;
#X obj 648 715 outlet;
#X obj 706 716 outlet;
#X obj 768 719 outlet;
#X obj 343 103 comport 1 115200;
#X connect 0 0 41 0;
#X connect 2 0 4 0;
#X connect 3 0 34 0;
#X connect 3 0 19 0;
#X connect 4 0 16 0;
#X connect 5 0 2 0;
#X connect 10 0 2 1;
#X connect 10 1 17 0;
#X connect 10 2 2 0;
#X connect 11 0 2 1;
#X connect 11 1 18 0;
#X connect 11 2 2 0;
#X connect 16 0 17 1;
#X connect 16 0 18 1;
#X connect 17 0 26 0;
#X connect 17 0 19 1;
#X connect 18 0 3 0;
#X connect 19 0 21 0;
#X connect 20 0 10 0;
#X connect 20 1 11 0;
#X connect 20 2 5 0;
#X connect 21 0 22 0;
#X connect 21 1 23 0;
#X connect 21 2 24 0;
#X connect 21 3 25 0;
#X connect 21 4 37 0;
#X connect 21 5 38 0;
#X connect 21 6 39 0;
#X connect 21 7 40 0;
#X connect 27 0 35 0;
#X connect 28 0 27 0;
#X connect 29 0 30 0;
#X connect 30 0 31 0;
#X connect 30 0 32 1;
#X connect 31 0 30 1;
#X connect 32 0 33 0;
#X connect 34 0 29 0;
#X connect 35 0 36 0;
#X connect 35 1 32 0;
#X connect 36 0 30 1;
#X connect 41 0 20 0;
#X restore 87 163 pd serialinterface;
#X msg 101 139 open 1;
#X msg 151 122 open 2;
#X floatatom 56 215 5 0 0 0 - - - 0;
#X floatatom 95 216 5 0 0 0 - - - 0;
#X floatatom 135 216 5 0 0 0 - - - 0;
#X floatatom 174 217 5 0 0 0 - - - 0;
#N canvas 684 356 578 516 metro 0;
#X obj 101 68 loadbang;
#X obj 101 108 tgl 15 0 empty empty empty 17 7 0 10 #fcfcfc #000000
#000000 0 1;
#X obj 103 183 f;
#X obj 126 225 + 1;
#X obj 104 308 s metro;
#X floatatom 178 293 5 0 0 0 - - - 0;
#X text 115 106 on/off;
#X obj 175 363 outlet;
#X obj 261 335 sel 0;
#X obj 259 384 s reset;
#X obj 103 145 metro 50;
#X obj 103 263 mod 40;
#X connect 0 0 1 0;
#X connect 1 0 10 0;
#X connect 2 0 3 0;
#X connect 2 0 11 0;
#X connect 3 0 2 1;
#X connect 5 0 7 0;
#X connect 5 0 8 0;
#X connect 8 0 9 0;
#X connect 10 0 2 0;
#X connect 11 0 4 0;
#X connect 11 0 5 0;
#X coords 0 -1 1 1 70 30 2 100 100;
#X restore 476 205 pd metro;
#X obj -20 294 SCOPE 1;
#X obj 182 295 SCOPE 2;
#X obj 386 296 SCOPE 3;
#X obj 779 106 adc~ 1 2;
#X obj 781 207 dac~ 1 2;
#X obj 859 99 vsl 15 32 0 3 0 0 empty empty empty 0 -9 0 10 #fcfcfc
#000000 #000000 0 1;
#X floatatom 860 143 5 0 0 0 - - - 0;
#X obj 774 155 *~;
#X obj 817 155 *~;
#X obj 1037 258 sig~;
#X obj 1039 289 hip~ 1;
#X msg 625 122 \; pd dsp 1;
#X obj 629 83 loadbang;
#N canvas 191 149 449 546 signalreader 0;
#X obj 3 123 inlet~;
#X obj 130 138 tgl 15 0 empty empty empty 17 7 0 10 #fcfcfc #000000
#000000 0 1;
#X obj 28 270 snapshot~;
#X floatatom 12 307 5 0 0 0 - - - 0;
#X obj 47 400 moses;
#X floatatom 94 433 5 0 0 0 - - - 0;
#X obj 41 463 moses;
#X floatatom 44 502 5 0 0 0 - - - 0;
#X obj 302 110 loadbang;
#X msg 302 134 100;
#X floatatom 212 107 5 0 0 0 - - - 0;
#X obj 28 235 metro;
#X text 147 107 Rate (ms);
#X text 101 136 1/0;
#X floatatom 123 161 6 0 0 0 - - - 0;
#X floatatom 196 162 6 0 0 0 - - - 0;
#X obj 145 183 bng 15 250 50 0 empty empty empty 17 7 0 10 #fcfcfc
#000000 #000000;
#X text 103 181 Reset;
#X floatatom 210 127 5 0 0 0 - - - 0;
#X msg 104 369 -100000;
#X msg 179 371 100000;
#X text 102 162 Lo;
#X text 172 161 Hi;
#X obj 152 72 env~;
#X floatatom 102 117 5 0 0 0 - - - 0;
#X obj 252 254 switch~;
#X text 102 100 Env~;
#X text 147 126 Snapshot~;
#X obj 286 200 -;
#X floatatom 216 182 5 0 0 0 - - - 0;
#X text 177 181 Range;
#X connect 0 0 2 0;
#X connect 0 0 23 0;
#X connect 1 0 11 0;
#X connect 1 0 25 0;
#X connect 2 0 3 0;
#X connect 2 0 4 0;
#X connect 2 0 18 0;
#X connect 3 0 6 0;
#X connect 4 1 5 0;
#X connect 5 0 4 1;
#X connect 5 0 15 0;
#X connect 6 0 7 0;
#X connect 7 0 6 1;
#X connect 7 0 14 0;
#X connect 8 0 9 0;
#X connect 9 0 10 0;
#X connect 10 0 11 1;
#X connect 11 0 2 0;
#X connect 14 0 28 1;
#X connect 15 0 28 0;
#X connect 16 0 19 0;
#X connect 16 0 20 0;
#X connect 19 0 4 1;
#X connect 20 0 6 1;
#X connect 23 0 24 0;
#X connect 28 0 29 0;
#X coords 0 -1 1 1 150 100 2 100 100;
#X restore 863 328 pd signalreader;
#X obj 18 472 SCOPE 4;
#X floatatom 224 219 5 0 0 0 - - - 0;
#X floatatom 263 220 5 0 0 0 - - - 0;
#X floatatom 303 220 5 0 0 0 - - - 0;
#X floatatom 342 221 5 0 0 0 - - - 0;
#X obj 228 478 SCOPE 5;
#X obj 446 483 SCOPE 6;
#X obj 657 489 SCOPE 7;
#X obj -226 286 SCOPE 0;
#X connect 0 0 2 0;
#X connect 1 0 2 0;
#X connect 2 0 5 0;
#X connect 2 1 6 0;
#X connect 2 2 7 0;
#X connect 2 3 8 0;
#X connect 2 4 25 0;
#X connect 2 5 26 0;
#X connect 2 6 27 0;
#X connect 2 7 28 0;
#X connect 3 0 2 0;
#X connect 4 0 2 0;
#X connect 5 0 32 0;
#X connect 6 0 10 0;
#X connect 7 0 11 0;
#X connect 8 0 12 0;
#X connect 13 0 17 0;
#X connect 13 1 18 0;
#X connect 15 0 16 0;
#X connect 15 0 17 1;
#X connect 15 0 18 1;
#X connect 17 0 14 0;
#X connect 18 0 14 1;
#X connect 19 0 20 0;
#X connect 20 0 23 0;
#X connect 22 0 21 0;
#X connect 25 0 24 0;
#X connect 26 0 29 0;
#X connect 27 0 30 0;
#X connect 28 0 31 0;
